<mxfile host="app.diagrams.net" modified="2020-10-07T11:13:09.756Z" agent="5.0 (Windows NT 10.0; Win64; x64) AppleWebKit/537.36 (KHTML, like Gecko) Chrome/85.0.4183.121 Safari/537.36" etag="U6_xxpOTBNhPljIbPQ5w" version="13.7.7" type="github">
  <diagram id="C5RBs43oDa-KdzZeNtuy" name="Page-1">
    <mxGraphModel dx="1747" dy="831" grid="1" gridSize="10" guides="1" tooltips="1" connect="1" arrows="1" fold="1" page="1" pageScale="1" pageWidth="827" pageHeight="1169" math="0" shadow="0">
      <root>
        <mxCell id="WIyWlLk6GJQsqaUBKTNV-0" />
        <mxCell id="WIyWlLk6GJQsqaUBKTNV-1" parent="WIyWlLk6GJQsqaUBKTNV-0" />
        <mxCell id="2r6DRg50cbP7HBUWLrGF-15" style="edgeStyle=orthogonalEdgeStyle;rounded=0;orthogonalLoop=1;jettySize=auto;html=1;exitX=0.25;exitY=1;exitDx=0;exitDy=0;entryX=0.25;entryY=0;entryDx=0;entryDy=0;" edge="1" parent="WIyWlLk6GJQsqaUBKTNV-1" source="WIyWlLk6GJQsqaUBKTNV-3" target="2r6DRg50cbP7HBUWLrGF-2">
          <mxGeometry relative="1" as="geometry" />
        </mxCell>
        <mxCell id="2r6DRg50cbP7HBUWLrGF-16" style="edgeStyle=orthogonalEdgeStyle;rounded=0;orthogonalLoop=1;jettySize=auto;html=1;exitX=0.5;exitY=1;exitDx=0;exitDy=0;entryX=0.942;entryY=0.017;entryDx=0;entryDy=0;entryPerimeter=0;" edge="1" parent="WIyWlLk6GJQsqaUBKTNV-1" source="WIyWlLk6GJQsqaUBKTNV-3" target="2r6DRg50cbP7HBUWLrGF-3">
          <mxGeometry relative="1" as="geometry">
            <Array as="points">
              <mxPoint x="414" y="180" />
              <mxPoint x="333" y="180" />
            </Array>
          </mxGeometry>
        </mxCell>
        <mxCell id="2r6DRg50cbP7HBUWLrGF-18" style="edgeStyle=orthogonalEdgeStyle;rounded=0;orthogonalLoop=1;jettySize=auto;html=1;exitX=1;exitY=0.75;exitDx=0;exitDy=0;" edge="1" parent="WIyWlLk6GJQsqaUBKTNV-1" source="WIyWlLk6GJQsqaUBKTNV-3" target="2r6DRg50cbP7HBUWLrGF-5">
          <mxGeometry relative="1" as="geometry" />
        </mxCell>
        <mxCell id="WIyWlLk6GJQsqaUBKTNV-3" value="Pupil Results" style="rounded=1;whiteSpace=wrap;html=1;fontSize=12;glass=0;strokeWidth=1;shadow=0;" parent="WIyWlLk6GJQsqaUBKTNV-1" vertex="1">
          <mxGeometry x="354" y="80" width="120" height="40" as="geometry" />
        </mxCell>
        <mxCell id="2r6DRg50cbP7HBUWLrGF-39" style="edgeStyle=orthogonalEdgeStyle;rounded=0;orthogonalLoop=1;jettySize=auto;html=1;exitX=0;exitY=0.5;exitDx=0;exitDy=0;" edge="1" parent="WIyWlLk6GJQsqaUBKTNV-1" source="2r6DRg50cbP7HBUWLrGF-2" target="2r6DRg50cbP7HBUWLrGF-37">
          <mxGeometry relative="1" as="geometry" />
        </mxCell>
        <mxCell id="2r6DRg50cbP7HBUWLrGF-40" style="edgeStyle=orthogonalEdgeStyle;rounded=0;orthogonalLoop=1;jettySize=auto;html=1;exitX=0.25;exitY=1;exitDx=0;exitDy=0;entryX=0.594;entryY=0.032;entryDx=0;entryDy=0;entryPerimeter=0;" edge="1" parent="WIyWlLk6GJQsqaUBKTNV-1" source="2r6DRg50cbP7HBUWLrGF-2" target="2r6DRg50cbP7HBUWLrGF-38">
          <mxGeometry relative="1" as="geometry" />
        </mxCell>
        <mxCell id="2r6DRg50cbP7HBUWLrGF-51" style="edgeStyle=orthogonalEdgeStyle;rounded=0;orthogonalLoop=1;jettySize=auto;html=1;exitX=0.75;exitY=1;exitDx=0;exitDy=0;entryX=0.25;entryY=0;entryDx=0;entryDy=0;" edge="1" parent="WIyWlLk6GJQsqaUBKTNV-1" source="2r6DRg50cbP7HBUWLrGF-2" target="2r6DRg50cbP7HBUWLrGF-49">
          <mxGeometry relative="1" as="geometry" />
        </mxCell>
        <mxCell id="2r6DRg50cbP7HBUWLrGF-2" value="get&amp;nbsp; results" style="rounded=0;whiteSpace=wrap;html=1;" vertex="1" parent="WIyWlLk6GJQsqaUBKTNV-1">
          <mxGeometry x="-20" y="200" width="120" height="60" as="geometry" />
        </mxCell>
        <mxCell id="2r6DRg50cbP7HBUWLrGF-11" style="edgeStyle=orthogonalEdgeStyle;rounded=0;orthogonalLoop=1;jettySize=auto;html=1;exitX=0.5;exitY=1;exitDx=0;exitDy=0;entryX=0.442;entryY=0.033;entryDx=0;entryDy=0;entryPerimeter=0;" edge="1" parent="WIyWlLk6GJQsqaUBKTNV-1" source="2r6DRg50cbP7HBUWLrGF-3">
          <mxGeometry relative="1" as="geometry">
            <mxPoint x="273.0400000000002" y="301.98" as="targetPoint" />
          </mxGeometry>
        </mxCell>
        <mxCell id="2r6DRg50cbP7HBUWLrGF-3" value="calculate percentages" style="rounded=0;whiteSpace=wrap;html=1;" vertex="1" parent="WIyWlLk6GJQsqaUBKTNV-1">
          <mxGeometry x="220" y="200" width="120" height="60" as="geometry" />
        </mxCell>
        <mxCell id="2r6DRg50cbP7HBUWLrGF-27" style="edgeStyle=orthogonalEdgeStyle;rounded=0;orthogonalLoop=1;jettySize=auto;html=1;exitX=0.25;exitY=1;exitDx=0;exitDy=0;entryX=0.25;entryY=0;entryDx=0;entryDy=0;" edge="1" parent="WIyWlLk6GJQsqaUBKTNV-1" source="2r6DRg50cbP7HBUWLrGF-5" target="2r6DRg50cbP7HBUWLrGF-26">
          <mxGeometry relative="1" as="geometry" />
        </mxCell>
        <mxCell id="2r6DRg50cbP7HBUWLrGF-29" style="edgeStyle=orthogonalEdgeStyle;rounded=0;orthogonalLoop=1;jettySize=auto;html=1;exitX=0.75;exitY=1;exitDx=0;exitDy=0;entryX=0.5;entryY=0;entryDx=0;entryDy=0;" edge="1" parent="WIyWlLk6GJQsqaUBKTNV-1" source="2r6DRg50cbP7HBUWLrGF-5" target="2r6DRg50cbP7HBUWLrGF-28">
          <mxGeometry relative="1" as="geometry" />
        </mxCell>
        <mxCell id="2r6DRg50cbP7HBUWLrGF-54" style="edgeStyle=orthogonalEdgeStyle;rounded=0;orthogonalLoop=1;jettySize=auto;html=1;exitX=0;exitY=0.5;exitDx=0;exitDy=0;entryX=1;entryY=0;entryDx=0;entryDy=0;" edge="1" parent="WIyWlLk6GJQsqaUBKTNV-1" source="2r6DRg50cbP7HBUWLrGF-5" target="2r6DRg50cbP7HBUWLrGF-53">
          <mxGeometry relative="1" as="geometry" />
        </mxCell>
        <mxCell id="2r6DRg50cbP7HBUWLrGF-5" value="display pupil with top mark" style="rounded=0;whiteSpace=wrap;html=1;" vertex="1" parent="WIyWlLk6GJQsqaUBKTNV-1">
          <mxGeometry x="550" y="190" width="120" height="60" as="geometry" />
        </mxCell>
        <mxCell id="2r6DRg50cbP7HBUWLrGF-6" value="get pupils name" style="rounded=0;whiteSpace=wrap;html=1;" vertex="1" parent="WIyWlLk6GJQsqaUBKTNV-1">
          <mxGeometry x="-190" y="480" width="120" height="60" as="geometry" />
        </mxCell>
        <mxCell id="2r6DRg50cbP7HBUWLrGF-7" value="get pupils mark out of 20" style="rounded=0;whiteSpace=wrap;html=1;" vertex="1" parent="WIyWlLk6GJQsqaUBKTNV-1">
          <mxGeometry x="-60" y="480" width="120" height="60" as="geometry" />
        </mxCell>
        <mxCell id="2r6DRg50cbP7HBUWLrGF-9" value="pupil percent = 100 / 20 * pupil mark" style="rounded=0;whiteSpace=wrap;html=1;" vertex="1" parent="WIyWlLk6GJQsqaUBKTNV-1">
          <mxGeometry x="220" y="470" width="120" height="60" as="geometry" />
        </mxCell>
        <mxCell id="2r6DRg50cbP7HBUWLrGF-25" style="edgeStyle=orthogonalEdgeStyle;rounded=0;orthogonalLoop=1;jettySize=auto;html=1;exitX=0.5;exitY=1;exitDx=0;exitDy=0;entryX=0.5;entryY=0;entryDx=0;entryDy=0;" edge="1" parent="WIyWlLk6GJQsqaUBKTNV-1" source="2r6DRg50cbP7HBUWLrGF-22" target="2r6DRg50cbP7HBUWLrGF-24">
          <mxGeometry relative="1" as="geometry" />
        </mxCell>
        <mxCell id="2r6DRg50cbP7HBUWLrGF-22" value="if pupil percent &amp;gt; than current highest pupil percent" style="rounded=0;whiteSpace=wrap;html=1;" vertex="1" parent="WIyWlLk6GJQsqaUBKTNV-1">
          <mxGeometry x="414" y="370" width="120" height="60" as="geometry" />
        </mxCell>
        <mxCell id="2r6DRg50cbP7HBUWLrGF-24" value="current pupil = highest pupil" style="rounded=0;whiteSpace=wrap;html=1;" vertex="1" parent="WIyWlLk6GJQsqaUBKTNV-1">
          <mxGeometry x="414" y="460" width="120" height="60" as="geometry" />
        </mxCell>
        <mxCell id="2r6DRg50cbP7HBUWLrGF-26" value="display highest pupil name" style="rounded=0;whiteSpace=wrap;html=1;" vertex="1" parent="WIyWlLk6GJQsqaUBKTNV-1">
          <mxGeometry x="540" y="310" width="120" height="60" as="geometry" />
        </mxCell>
        <mxCell id="2r6DRg50cbP7HBUWLrGF-28" value="display highest pupil&amp;nbsp; percent" style="rounded=0;whiteSpace=wrap;html=1;" vertex="1" parent="WIyWlLk6GJQsqaUBKTNV-1">
          <mxGeometry x="680" y="310" width="120" height="60" as="geometry" />
        </mxCell>
        <mxCell id="2r6DRg50cbP7HBUWLrGF-36" style="edgeStyle=orthogonalEdgeStyle;rounded=0;orthogonalLoop=1;jettySize=auto;html=1;exitX=0.5;exitY=1;exitDx=0;exitDy=0;" edge="1" parent="WIyWlLk6GJQsqaUBKTNV-1" source="2r6DRg50cbP7HBUWLrGF-34" target="2r6DRg50cbP7HBUWLrGF-9">
          <mxGeometry relative="1" as="geometry" />
        </mxCell>
        <mxCell id="2r6DRg50cbP7HBUWLrGF-34" value="&lt;span&gt;start loop for each pupil&lt;/span&gt;" style="ellipse;whiteSpace=wrap;html=1;" vertex="1" parent="WIyWlLk6GJQsqaUBKTNV-1">
          <mxGeometry x="210" y="300" width="120" height="80" as="geometry" />
        </mxCell>
        <mxCell id="2r6DRg50cbP7HBUWLrGF-37" value="open marks file" style="rounded=0;whiteSpace=wrap;html=1;" vertex="1" parent="WIyWlLk6GJQsqaUBKTNV-1">
          <mxGeometry x="-160" y="270" width="120" height="60" as="geometry" />
        </mxCell>
        <mxCell id="2r6DRg50cbP7HBUWLrGF-42" style="edgeStyle=orthogonalEdgeStyle;rounded=0;orthogonalLoop=1;jettySize=auto;html=1;exitX=0.5;exitY=1;exitDx=0;exitDy=0;entryX=0.398;entryY=-0.026;entryDx=0;entryDy=0;entryPerimeter=0;" edge="1" parent="WIyWlLk6GJQsqaUBKTNV-1" source="2r6DRg50cbP7HBUWLrGF-38" target="2r6DRg50cbP7HBUWLrGF-7">
          <mxGeometry relative="1" as="geometry" />
        </mxCell>
        <mxCell id="2r6DRg50cbP7HBUWLrGF-43" style="edgeStyle=orthogonalEdgeStyle;rounded=0;orthogonalLoop=1;jettySize=auto;html=1;exitX=0.5;exitY=1;exitDx=0;exitDy=0;entryX=0.662;entryY=0.013;entryDx=0;entryDy=0;entryPerimeter=0;" edge="1" parent="WIyWlLk6GJQsqaUBKTNV-1" source="2r6DRg50cbP7HBUWLrGF-38" target="2r6DRg50cbP7HBUWLrGF-6">
          <mxGeometry relative="1" as="geometry" />
        </mxCell>
        <mxCell id="2r6DRg50cbP7HBUWLrGF-47" style="edgeStyle=orthogonalEdgeStyle;rounded=0;orthogonalLoop=1;jettySize=auto;html=1;exitX=0.5;exitY=1;exitDx=0;exitDy=0;" edge="1" parent="WIyWlLk6GJQsqaUBKTNV-1" source="2r6DRg50cbP7HBUWLrGF-38" target="2r6DRg50cbP7HBUWLrGF-46">
          <mxGeometry relative="1" as="geometry" />
        </mxCell>
        <mxCell id="2r6DRg50cbP7HBUWLrGF-38" value="start loop for each pupil" style="ellipse;whiteSpace=wrap;html=1;" vertex="1" parent="WIyWlLk6GJQsqaUBKTNV-1">
          <mxGeometry x="-30" y="350" width="120" height="80" as="geometry" />
        </mxCell>
        <mxCell id="2r6DRg50cbP7HBUWLrGF-46" value="get course mark" style="whiteSpace=wrap;html=1;" vertex="1" parent="WIyWlLk6GJQsqaUBKTNV-1">
          <mxGeometry x="70" y="480" width="120" height="60" as="geometry" />
        </mxCell>
        <mxCell id="2r6DRg50cbP7HBUWLrGF-49" value="close marks file" style="whiteSpace=wrap;html=1;" vertex="1" parent="WIyWlLk6GJQsqaUBKTNV-1">
          <mxGeometry x="70" y="290" width="120" height="60" as="geometry" />
        </mxCell>
        <mxCell id="2r6DRg50cbP7HBUWLrGF-55" style="edgeStyle=orthogonalEdgeStyle;rounded=0;orthogonalLoop=1;jettySize=auto;html=1;exitX=0.5;exitY=1;exitDx=0;exitDy=0;entryX=0.5;entryY=0;entryDx=0;entryDy=0;" edge="1" parent="WIyWlLk6GJQsqaUBKTNV-1" source="2r6DRg50cbP7HBUWLrGF-53" target="2r6DRg50cbP7HBUWLrGF-22">
          <mxGeometry relative="1" as="geometry" />
        </mxCell>
        <mxCell id="2r6DRg50cbP7HBUWLrGF-53" value="loop for each pupil" style="ellipse;whiteSpace=wrap;html=1;" vertex="1" parent="WIyWlLk6GJQsqaUBKTNV-1">
          <mxGeometry x="414" y="260" width="120" height="80" as="geometry" />
        </mxCell>
      </root>
    </mxGraphModel>
  </diagram>
</mxfile>
